STARTFONT 2.1
FONT -Monotype-Nimrod-Regular-I-Normal--19-140-100-100-P-113-iso8859-5
SIZE 14 100 100
FONTBOUNDINGBOX 25 23 -2 -5

STARTPROPERTIES 24
FOUNDRY "Monotype"
FAMILY_NAME "Nimrod"
WEIGHT_NAME "Regular"
SLANT "I"
SETWIDTH_NAME "Normal"
ADD_STYLE_NAME ""
PIXEL_SIZE 19
POINT_SIZE 140
RESOLUTION_X 100
RESOLUTION_Y 100
SPACING "P"
AVERAGE_WIDTH 113
CHARSET_REGISTRY "iso8859"
CHARSET_ENCODING "5"
FACE_NAME "Nimrod Inclined ISO Latin Cyrillic"
_DEC_DEVICE_FONTNAMES "PS=nimrod-in-latcyrillic"
COPYRIGHT "Copyright (c) 1994 Monotype Typography Ltd."
CAP_HEIGHT 16
X_HEIGHT 12
WEIGHT 10
QUAD_WIDTH 13
DEFAULT_CHAR 160
FONT_DESCENT 5
FONT_ASCENT 18
ENDPROPERTIES

CHARS 191

STARTCHAR space
ENCODING 32
SWIDTH 250 0
DWIDTH 5 0
BBX 0 0 0 0
BITMAP
ENDCHAR

STARTCHAR exclam
ENCODING 33
SWIDTH 354 0
DWIDTH 7 0
BBX 5 14 2 0
BITMAP
18
18
18
30
30
30
60
60
40
40
00
00
C0
C0
ENDCHAR

STARTCHAR quotedbl
ENCODING 34
SWIDTH 417 0
DWIDTH 8 0
BBX 7 6 1 8
BITMAP
66
66
66
CC
CC
88
ENDCHAR

STARTCHAR numbersign
ENCODING 35
SWIDTH 667 0
DWIDTH 13 0
BBX 12 14 1 0
BITMAP
0840
0840
0840
0840
7FF0
1080
1080
1080
1080
FFE0
2100
2100
2100
2100
ENDCHAR

STARTCHAR dollar
ENCODING 36
SWIDTH 500 0
DWIDTH 10 0
BBX 9 16 1 -2
BITMAP
0400
1F00
3580
6480
6800
7800
3800
1C00
1E00
1700
9300
D300
5600
3C00
1000
1000
ENDCHAR

STARTCHAR percent
ENCODING 37
SWIDTH 1000 0
DWIDTH 19 0
BBX 15 14 2 0
BITMAP
1C20
2620
6640
C640
CC80
C880
7100
021C
0226
0466
04C6
08CC
08C8
1070
ENDCHAR

STARTCHAR ampersand
ENCODING 38
SWIDTH 854 0
DWIDTH 16 0
BBX 15 14 1 0
BITMAP
03C0
0660
0C60
0C60
0CC0
0F00
3E3E
6618
C310
C320
C1A0
C0C2
61E4
3E78
ENDCHAR

STARTCHAR quoteright
ENCODING 39
SWIDTH 281 0
DWIDTH 5 0
BBX 4 4 0 10
BITMAP
30
30
20
C0
ENDCHAR

STARTCHAR parenleft
ENCODING 40
SWIDTH 354 0
DWIDTH 7 0
BBX 8 18 0 -4
BITMAP
01
06
0C
18
30
30
60
60
C0
C0
C0
C0
C0
C0
40
60
20
10
ENDCHAR

STARTCHAR parenright
ENCODING 41
SWIDTH 354 0
DWIDTH 7 0
BBX 8 18 -1 -4
BITMAP
08
04
06
02
03
03
03
03
03
03
06
06
0C
0C
18
30
60
80
ENDCHAR

STARTCHAR asterisk
ENCODING 42
SWIDTH 469 0
DWIDTH 9 0
BBX 7 8 1 6
BITMAP
18
18
D0
F6
3E
D0
D8
18
ENDCHAR

STARTCHAR plus
ENCODING 43
SWIDTH 667 0
DWIDTH 13 0
BBX 9 9 2 2
BITMAP
0800
0800
0800
0800
FF80
0800
0800
0800
0800
ENDCHAR

STARTCHAR comma
ENCODING 44
SWIDTH 281 0
DWIDTH 5 0
BBX 4 4 0 -2
BITMAP
30
30
20
C0
ENDCHAR

STARTCHAR minus
ENCODING 45
SWIDTH 667 0
DWIDTH 13 0
BBX 10 1 2 6
BITMAP
FFC0
ENDCHAR

STARTCHAR period
ENCODING 46
SWIDTH 281 0
DWIDTH 5 0
BBX 2 2 2 0
BITMAP
C0
C0
ENDCHAR

STARTCHAR slash
ENCODING 47
SWIDTH 510 0
DWIDTH 10 0
BBX 8 14 1 0
BITMAP
03
02
06
04
0C
08
18
10
30
20
60
40
C0
80
ENDCHAR

STARTCHAR zero
ENCODING 48
SWIDTH 500 0
DWIDTH 10 0
BBX 9 14 1 0
BITMAP
0E00
1900
3180
3180
6180
6180
6180
C300
C300
C300
C600
C600
4C00
3800
ENDCHAR

STARTCHAR one
ENCODING 49
SWIDTH 500 0
DWIDTH 10 0
BBX 7 14 2 0
BITMAP
06
3E
0C
0C
0C
18
18
18
18
18
30
30
30
FC
ENDCHAR

STARTCHAR two
ENCODING 50
SWIDTH 500 0
DWIDTH 10 0
BBX 10 14 0 0
BITMAP
0F00
1180
20C0
30C0
18C0
0180
0180
0300
0400
0800
1080
2180
7F00
FF00
ENDCHAR

STARTCHAR three
ENCODING 51
SWIDTH 500 0
DWIDTH 10 0
BBX 9 14 0 0
BITMAP
0E00
1300
3180
1980
0180
0300
1E00
0600
0300
0300
6300
C300
4600
3C00
ENDCHAR

STARTCHAR four
ENCODING 52
SWIDTH 500 0
DWIDTH 10 0
BBX 9 14 0 0
BITMAP
0080
0180
0380
0580
0980
0980
1300
2300
4300
8300
FF80
0600
0600
1F80
ENDCHAR

STARTCHAR five
ENCODING 53
SWIDTH 500 0
DWIDTH 10 0
BBX 10 14 0 0
BITMAP
0FC0
0F80
0800
1000
1000
3E00
2300
0180
0180
0180
6180
C300
4700
3C00
ENDCHAR

STARTCHAR six
ENCODING 54
SWIDTH 500 0
DWIDTH 10 0
BBX 9 14 1 0
BITMAP
0700
1980
3080
3000
6000
6000
6E00
7300
C300
C300
C300
C600
6600
3800
ENDCHAR

STARTCHAR seven
ENCODING 55
SWIDTH 500 0
DWIDTH 10 0
BBX 8 14 2 0
BITMAP
7F
FF
81
82
04
0C
08
18
30
30
60
60
C0
C0
ENDCHAR

STARTCHAR eight
ENCODING 56
SWIDTH 500 0
DWIDTH 10 0
BBX 10 14 0 0
BITMAP
0F00
1980
30C0
30C0
30C0
1980
1F00
7300
6180
C180
C180
C300
6700
3C00
ENDCHAR

STARTCHAR nine
ENCODING 57
SWIDTH 500 0
DWIDTH 10 0
BBX 9 14 0 0
BITMAP
0E00
3300
3180
6180
6180
6180
6700
3B00
0300
0300
0600
8600
CC00
7000
ENDCHAR

STARTCHAR colon
ENCODING 58
SWIDTH 281 0
DWIDTH 5 0
BBX 4 10 1 0
BITMAP
30
30
00
00
00
00
00
00
C0
C0
ENDCHAR

STARTCHAR semicolon
ENCODING 59
SWIDTH 281 0
DWIDTH 5 0
BBX 6 12 -1 -2
BITMAP
0C
0C
00
00
00
00
00
00
30
30
20
C0
ENDCHAR

STARTCHAR less
ENCODING 60
SWIDTH 667 0
DWIDTH 13 0
BBX 10 9 2 2
BITMAP
0040
01C0
0E00
3000
C000
3000
0E00
01C0
0040
ENDCHAR

STARTCHAR equal
ENCODING 61
SWIDTH 667 0
DWIDTH 13 0
BBX 10 5 2 4
BITMAP
FFC0
0000
0000
0000
FFC0
ENDCHAR

STARTCHAR greater
ENCODING 62
SWIDTH 667 0
DWIDTH 13 0
BBX 10 9 2 2
BITMAP
8000
E000
1C00
0300
00C0
0300
1C00
E000
8000
ENDCHAR

STARTCHAR question
ENCODING 63
SWIDTH 427 0
DWIDTH 8 0
BBX 8 14 1 0
BITMAP
3E
43
63
23
06
0C
18
30
20
20
00
00
C0
C0
ENDCHAR

STARTCHAR at
ENCODING 64
SWIDTH 917 0
DWIDTH 17 0
BBX 16 18 1 -4
BITMAP
03E0
0C18
1004
2002
41B2
4271
8631
8431
8C61
8C62
8CE2
8D6C
4630
4001
2002
1004
0C18
03E0
ENDCHAR

STARTCHAR A
ENCODING 65
SWIDTH 771 0
DWIDTH 15 0
BBX 14 14 0 0
BITMAP
0040
00C0
00E0
0160
0160
0260
0460
0460
0830
1FF0
1030
2030
6030
F8FC
ENDCHAR

STARTCHAR B
ENCODING 66
SWIDTH 740 0
DWIDTH 14 0
BBX 14 14 0 0
BITMAP
1FE0
0618
060C
060C
0C0C
0C18
0FE0
1830
1818
1818
3018
3018
3030
FFC0
ENDCHAR

STARTCHAR C
ENCODING 67
SWIDTH 708 0
DWIDTH 13 0
BBX 13 14 1 0
BITMAP
03E0
0C38
3818
3008
6008
6000
C000
C000
C000
C020
C020
6040
70C0
1F00
ENDCHAR

STARTCHAR D
ENCODING 68
SWIDTH 792 0
DWIDTH 15 0
BBX 15 14 0 0
BITMAP
1FF0
061C
060C
0606
0C06
0C06
0C06
1806
180C
180C
3018
3038
3060
FF80
ENDCHAR

STARTCHAR E
ENCODING 69
SWIDTH 708 0
DWIDTH 13 0
BBX 14 14 0 0
BITMAP
1FFC
061C
060C
0608
0C48
0C40
0FC0
1880
1880
1800
3010
3030
3060
FFE0
ENDCHAR

STARTCHAR F
ENCODING 70
SWIDTH 698 0
DWIDTH 13 0
BBX 14 14 0 0
BITMAP
1FFC
061C
060C
0608
0C48
0C40
0FC0
1880
1880
1800
3000
3000
3000
FC00
ENDCHAR

STARTCHAR G
ENCODING 71
SWIDTH 802 0
DWIDTH 15 0
BBX 14 14 2 0
BITMAP
03E0
0C38
3818
3008
6008
6000
C000
C0FC
C030
C030
C060
6060
70C0
1F00
ENDCHAR

STARTCHAR H
ENCODING 72
SWIDTH 812 0
DWIDTH 15 0
BBX 17 14 0 0
BITMAP
1F9F80
060600
060600
060600
0C0C00
0C0C00
0FFC00
181800
181800
181800
303000
303000
303000
FCFC00
ENDCHAR

STARTCHAR I
ENCODING 73
SWIDTH 417 0
DWIDTH 8 0
BBX 9 14 0 0
BITMAP
1F80
0600
0600
0600
0C00
0C00
0C00
1800
1800
1800
3000
3000
3000
FC00
ENDCHAR

STARTCHAR J
ENCODING 74
SWIDTH 604 0
DWIDTH 11 0
BBX 13 14 0 0
BITMAP
01F8
0060
0060
0060
00C0
00C0
00C0
00C0
0180
6180
E180
C300
4700
3C00
ENDCHAR

STARTCHAR K
ENCODING 75
SWIDTH 760 0
DWIDTH 14 0
BBX 16 14 0 0
BITMAP
1FBF
060C
0610
0C20
0C40
0C80
1F80
1980
18C0
18C0
3060
3060
3030
FCFC
ENDCHAR

STARTCHAR L
ENCODING 76
SWIDTH 667 0
DWIDTH 13 0
BBX 12 14 0 0
BITMAP
1F80
0600
0600
0600
0C00
0C00
0C00
1800
1800
1800
3010
3030
3060
FFE0
ENDCHAR

STARTCHAR M
ENCODING 77
SWIDTH 979 0
DWIDTH 19 0
BBX 20 14 0 0
BITMAP
1F01F0
0701C0
0702C0
0B06C0
0B0580
0B0980
0B0980
111300
11B300
11A300
11C600
21C600
218600
F91F80
ENDCHAR

STARTCHAR N
ENCODING 78
SWIDTH 823 0
DWIDTH 16 0
BBX 18 14 0 0
BITMAP
1F07C0
070100
058100
058100
098200
08C200
08C200
106400
106400
106400
203800
203800
201800
F81000
ENDCHAR

STARTCHAR O
ENCODING 79
SWIDTH 792 0
DWIDTH 15 0
BBX 13 14 2 0
BITMAP
03C0
0C70
3830
3018
6018
6018
C018
C018
C030
C030
C060
60E0
7180
1E00
ENDCHAR

STARTCHAR P
ENCODING 80
SWIDTH 698 0
DWIDTH 13 0
BBX 14 14 0 0
BITMAP
1FE0
0618
060C
060C
0C0C
0C0C
0C18
1FE0
1800
1800
3000
3000
3000
FC00
ENDCHAR

STARTCHAR Q
ENCODING 81
SWIDTH 792 0
DWIDTH 15 0
BBX 14 16 2 -2
BITMAP
03C0
0C70
3830
3018
6018
6018
C018
C018
CE30
D330
E360
61E0
71C0
1EC0
0060
003C
ENDCHAR

STARTCHAR R
ENCODING 82
SWIDTH 760 0
DWIDTH 14 0
BBX 14 14 0 0
BITMAP
1FE0
0618
060C
060C
0C0C
0C0C
0C18
1FE0
1860
1860
3060
3030
3030
FC38
ENDCHAR

STARTCHAR S
ENCODING 83
SWIDTH 646 0
DWIDTH 12 0
BBX 11 14 1 0
BITMAP
0780
18E0
3060
3020
3820
1C00
0F00
0380
01C0
80C0
80C0
C0C0
E180
3E00
ENDCHAR

STARTCHAR T
ENCODING 84
SWIDTH 750 0
DWIDTH 14 0
BBX 13 14 2 0
BITMAP
7FF8
6318
4308
4308
0600
0600
0600
0C00
0C00
0C00
1800
1800
1800
FF00
ENDCHAR

STARTCHAR U
ENCODING 85
SWIDTH 760 0
DWIDTH 14 0
BBX 14 14 2 0
BITMAP
FE7C
3010
3010
3010
6020
6020
6020
6040
C040
C040
C080
C080
6100
3E00
ENDCHAR

STARTCHAR V
ENCODING 86
SWIDTH 740 0
DWIDTH 14 0
BBX 15 14 2 0
BITMAP
FC7E
3018
3010
3020
3020
3040
1880
1880
1900
1A00
1A00
1C00
1800
1000
ENDCHAR

STARTCHAR W
ENCODING 87
SWIDTH 979 0
DWIDTH 19 0
BBX 18 14 3 0
BITMAP
F3F3C0
60C180
60C100
61C200
61C200
62C400
326400
346800
346800
387000
387000
306000
306000
204000
ENDCHAR

STARTCHAR X
ENCODING 88
SWIDTH 750 0
DWIDTH 14 0
BBX 16 14 0 0
BITMAP
3F1F
0C0C
0608
0610
0320
0340
0180
0180
02C0
04C0
0860
1060
3030
F8FC
ENDCHAR

STARTCHAR Y
ENCODING 89
SWIDTH 708 0
DWIDTH 13 0
BBX 14 14 1 0
BITMAP
FC7C
3030
3020
1840
1880
0D00
0E00
0600
0600
0600
0C00
0C00
0C00
3F00
ENDCHAR

STARTCHAR Z
ENCODING 90
SWIDTH 687 0
DWIDTH 13 0
BBX 13 14 1 0
BITMAP
0FF8
1C18
1830
1060
10C0
0180
0300
0600
0C00
1840
3040
60C0
C1C0
FF80
ENDCHAR

STARTCHAR bracketleft
ENCODING 91
SWIDTH 344 0
DWIDTH 7 0
BBX 8 18 0 -4
BITMAP
0F
0C
0C
18
18
18
18
30
30
30
30
60
60
60
60
C0
C0
F0
ENDCHAR

STARTCHAR backslash
ENCODING 92
SWIDTH 510 0
DWIDTH 10 0
BBX 8 14 1 0
BITMAP
C0
40
60
20
30
10
18
08
0C
04
06
02
03
01
ENDCHAR

STARTCHAR bracketright
ENCODING 93
SWIDTH 344 0
DWIDTH 7 0
BBX 8 18 -1 -4
BITMAP
0F
03
03
06
06
06
06
0C
0C
0C
0C
18
18
18
18
30
30
F0
ENDCHAR

STARTCHAR asciicircum
ENCODING 94
SWIDTH 427 0
DWIDTH 8 0
BBX 7 7 1 7
BITMAP
10
38
28
44
C6
82
82
ENDCHAR

STARTCHAR underscore
ENCODING 95
SWIDTH 500 0
DWIDTH 10 0
BBX 10 1 0 -4
BITMAP
FFC0
ENDCHAR

STARTCHAR quoteleft
ENCODING 96
SWIDTH 281 0
DWIDTH 5 0
BBX 4 4 2 10
BITMAP
30
40
C0
C0
ENDCHAR

STARTCHAR a
ENCODING 97
SWIDTH 604 0
DWIDTH 11 0
BBX 10 10 1 0
BITMAP
0D80
3380
6180
6300
C300
C300
C300
C640
6E80
3700
ENDCHAR

STARTCHAR b
ENCODING 98
SWIDTH 604 0
DWIDTH 11 0
BBX 9 14 1 0
BITMAP
7800
1800
1800
1800
3600
3B00
3180
6180
6180
6180
6300
C300
E600
B800
ENDCHAR

STARTCHAR c
ENCODING 99
SWIDTH 448 0
DWIDTH 9 0
BBX 8 10 1 0
BITMAP
0E
33
61
60
C0
C0
C0
C0
62
3C
ENDCHAR

STARTCHAR d
ENCODING 100
SWIDTH 604 0
DWIDTH 11 0
BBX 10 14 1 0
BITMAP
03C0
00C0
00C0
00C0
0D80
3380
6180
6300
C300
C300
C300
C640
6E80
3700
ENDCHAR

STARTCHAR e
ENCODING 101
SWIDTH 448 0
DWIDTH 9 0
BBX 8 10 1 0
BITMAP
0E
33
63
63
CE
F8
C0
C0
62
3C
ENDCHAR

STARTCHAR f
ENCODING 102
SWIDTH 344 0
DWIDTH 7 0
BBX 12 17 -2 -3
BITMAP
00E0
01B0
0190
0300
0FC0
0300
0300
0600
0600
0600
0600
0C00
0C00
0C00
9800
D800
7000
ENDCHAR

STARTCHAR g
ENCODING 103
SWIDTH 583 0
DWIDTH 11 0
BBX 13 13 -1 -3
BITMAP
0798
0CE0
1860
1860
1860
0CC0
1F80
2000
3F80
7FC0
C0C0
C180
7F00
ENDCHAR

STARTCHAR h
ENCODING 104
SWIDTH 635 0
DWIDTH 12 0
BBX 11 14 1 0
BITMAP
7800
1800
1800
3000
3380
35C0
38C0
70C0
6180
6180
6180
C320
C340
C180
ENDCHAR

STARTCHAR i
ENCODING 105
SWIDTH 344 0
DWIDTH 7 0
BBX 5 14 1 0
BITMAP
18
18
00
00
F0
30
30
60
60
60
C0
C8
D0
60
ENDCHAR

STARTCHAR j
ENCODING 106
SWIDTH 344 0
DWIDTH 7 0
BBX 9 17 -2 -3
BITMAP
0180
0180
0000
0000
0F00
0300
0300
0300
0600
0600
0600
0C00
0C00
0C00
9800
D800
7000
ENDCHAR

STARTCHAR k
ENCODING 107
SWIDTH 594 0
DWIDTH 11 0
BBX 10 14 1 0
BITMAP
7800
1800
1800
3000
3180
32C0
3200
7C00
6C00
6C00
6600
C640
C680
C300
ENDCHAR

STARTCHAR l
ENCODING 108
SWIDTH 344 0
DWIDTH 7 0
BBX 5 14 1 0
BITMAP
78
18
18
30
30
30
30
60
60
60
C0
C8
D0
60
ENDCHAR

STARTCHAR m
ENCODING 109
SWIDTH 906 0
DWIDTH 17 0
BBX 15 10 1 0
BITMAP
F738
3BDC
318C
318C
6318
6318
6318
C632
C634
C618
ENDCHAR

STARTCHAR n
ENCODING 110
SWIDTH 635 0
DWIDTH 12 0
BBX 11 10 1 0
BITMAP
F380
35C0
38C0
30C0
6180
6180
6180
C320
C340
C180
ENDCHAR

STARTCHAR o
ENCODING 111
SWIDTH 531 0
DWIDTH 10 0
BBX 9 10 1 0
BITMAP
0E00
3300
6180
6180
C180
C180
C300
C300
6600
3800
ENDCHAR

STARTCHAR p
ENCODING 112
SWIDTH 594 0
DWIDTH 11 0
BBX 12 13 -1 -3
BITMAP
1EC0
0760
0630
0C30
0C30
0C30
1860
1860
1CC0
3300
3000
3000
FC00
ENDCHAR

STARTCHAR q
ENCODING 113
SWIDTH 573 0
DWIDTH 11 0
BBX 9 13 1 -3
BITMAP
0E80
3380
6180
6300
C300
C300
C600
C600
6E00
3600
0C00
0C00
3F00
ENDCHAR

STARTCHAR r
ENCODING 114
SWIDTH 490 0
DWIDTH 9 0
BBX 8 10 1 0
BITMAP
F6
3B
31
60
60
60
60
C0
C0
C0
ENDCHAR

STARTCHAR s
ENCODING 115
SWIDTH 448 0
DWIDTH 9 0
BBX 8 10 1 0
BITMAP
1E
33
61
60
38
1C
06
86
CC
78
ENDCHAR

STARTCHAR t
ENCODING 116
SWIDTH 354 0
DWIDTH 7 0
BBX 7 14 1 0
BITMAP
08
08
18
18
7E
30
30
60
60
60
C0
C8
D0
60
ENDCHAR

STARTCHAR u
ENCODING 117
SWIDTH 635 0
DWIDTH 12 0
BBX 11 10 1 0
BITMAP
F0C0
30C0
30C0
6180
6180
6180
C300
C720
EB40
7180
ENDCHAR

STARTCHAR v
ENCODING 118
SWIDTH 542 0
DWIDTH 10 0
BBX 9 10 1 0
BITMAP
F300
3180
3080
6080
6080
6100
C100
C200
C400
7800
ENDCHAR

STARTCHAR w
ENCODING 119
SWIDTH 812 0
DWIDTH 15 0
BBX 13 10 1 0
BITMAP
F1B0
3198
3188
6308
6308
6310
C610
C620
CE40
7380
ENDCHAR

STARTCHAR x
ENCODING 120
SWIDTH 583 0
DWIDTH 11 0
BBX 11 10 0 0
BITMAP
18C0
2D20
4D00
0600
0600
0C00
0C00
1640
9680
6300
ENDCHAR

STARTCHAR y
ENCODING 121
SWIDTH 521 0
DWIDTH 10 0
BBX 11 13 -2 -3
BITMAP
18C0
2C60
4C20
0C20
0C20
0640
0640
0680
0700
0600
8400
C800
7000
ENDCHAR

STARTCHAR z
ENCODING 122
SWIDTH 510 0
DWIDTH 10 0
BBX 10 10 0 0
BITMAP
1CC0
3380
4300
0600
0C00
0800
1800
3080
7300
CE00
ENDCHAR

STARTCHAR braceleft
ENCODING 123
SWIDTH 479 0
DWIDTH 9 0
BBX 5 18 3 -4
BITMAP
08
10
10
30
60
60
60
40
80
40
40
C0
C0
C0
C0
40
40
20
ENDCHAR

STARTCHAR bar
ENCODING 124
SWIDTH 510 0
DWIDTH 10 0
BBX 2 15 4 0
BITMAP
C0
C0
C0
C0
C0
C0
C0
C0
C0
C0
C0
C0
C0
C0
C0
ENDCHAR

STARTCHAR braceright
ENCODING 125
SWIDTH 479 0
DWIDTH 9 0
BBX 5 18 2 -4
BITMAP
20
10
10
18
18
18
18
10
10
08
10
30
30
30
60
40
40
80
ENDCHAR

STARTCHAR asciitilde
ENCODING 126
SWIDTH 667 0
DWIDTH 13 0
BBX 10 3 2 5
BITMAP
7840
9E40
8780
ENDCHAR

STARTCHAR space
ENCODING 160
SWIDTH 250 0
DWIDTH 6 0
BBX 0 0 0 0
BITMAP
ENDCHAR

STARTCHAR afii10023
ENCODING 161
SWIDTH 708 0
DWIDTH 13 0
BBX 14 17 0 0
BITMAP
0318
0318
0000
1FFC
061C
060C
0608
0C48
0C40
0FC0
1880
1880
1800
3010
3030
3060
FFE0
ENDCHAR

STARTCHAR afii10051
ENCODING 162
SWIDTH 842 0
DWIDTH 16 0
BBX 13 14 2 0
BITMAP
FFF0
C630
8610
8610
0C00
0DE0
0E30
1818
1818
1818
3018
3030
3130
FCE0
ENDCHAR

STARTCHAR afii10052
ENCODING 163
SWIDTH 676 0
DWIDTH 13 0
BBX 13 18 1 0
BITMAP
0038
0060
00C0
0000
1FF8
0618
0608
0608
0C00
0C00
0C00
1800
1800
1800
3000
3000
3000
FC00
ENDCHAR

STARTCHAR afii10053
ENCODING 164
SWIDTH 708 0
DWIDTH 13 0
BBX 13 14 1 0
BITMAP
03E0
0C38
3818
3008
6008
6000
FF00
C000
C000
C020
C020
6040
70C0
1F00
ENDCHAR

STARTCHAR afii10054
ENCODING 165
SWIDTH 646 0
DWIDTH 12 0
BBX 11 14 1 0
BITMAP
0780
18E0
3060
3020
3820
1C00
0F00
0380
01C0
80C0
80C0
C0C0
E180
3E00
ENDCHAR

STARTCHAR afii10055
ENCODING 166
SWIDTH 406 0
DWIDTH 8 0
BBX 9 14 0 0
BITMAP
1F80
0600
0600
0600
0C00
0C00
0C00
1800
1800
1800
3000
3000
3000
FC00
ENDCHAR

STARTCHAR afii10056
ENCODING 167
SWIDTH 406 0
DWIDTH 8 0
BBX 9 17 0 0
BITMAP
3180
3180
0000
1F80
0600
0600
0600
0C00
0C00
0C00
1800
1800
1800
3000
3000
3000
FC00
ENDCHAR

STARTCHAR afii10057
ENCODING 168
SWIDTH 615 0
DWIDTH 11 0
BBX 13 14 0 0
BITMAP
01F8
0060
0060
0060
00C0
00C0
00C0
00C0
0180
6180
E180
C300
4700
3C00
ENDCHAR

STARTCHAR afii10058
ENCODING 169
SWIDTH 1096 0
DWIDTH 21 0
BBX 21 14 0 0
BITMAP
03FFC0
00C300
008300
008300
010600
010600
0107C0
020C30
020C18
020C18
041818
C41818
E81830
707FC0
ENDCHAR

STARTCHAR afii10059
ENCODING 170
SWIDTH 1061 0
DWIDTH 20 0
BBX 19 14 1 0
BITMAP
1FBF00
060C00
060C00
060C00
0C1800
0C1800
0FFF00
1830C0
183060
183060
306060
306060
3060C0
FDFF00
ENDCHAR

STARTCHAR afii10060
ENCODING 171
SWIDTH 847 0
DWIDTH 16 0
BBX 12 14 2 0
BITMAP
FFF0
C630
8610
8610
0C00
0DE0
0E70
1C30
1860
1860
3060
30C0
30C0
FDF0
ENDCHAR

STARTCHAR afii10061
ENCODING 172
SWIDTH 779 0
DWIDTH 15 0
BBX 15 18 0 0
BITMAP
001C
0030
0060
0000
1F8C
061E
0616
0620
0C20
0C40
0F80
1CC0
18C0
1860
3060
3060
3030
FC38
ENDCHAR

STARTCHAR hyphen
ENCODING 173
SWIDTH 281 0
DWIDTH 5 0
BBX 4 1 1 5
BITMAP
F0
ENDCHAR

STARTCHAR afii10062
ENCODING 174
SWIDTH 738 0
DWIDTH 14 0
BBX 16 18 0 0
BITMAP
0318
0318
01F0
0000
3F3F
0C0C
0C08
0C10
0C20
0620
0640
0680
0680
6700
E200
C200
4400
3800
ENDCHAR

STARTCHAR afii10145
ENCODING 175
SWIDTH 823 0
DWIDTH 16 0
BBX 17 17 0 -3
BITMAP
1F9F80
060600
060600
060600
0C0C00
0C0C00
0C0C00
181800
181800
181800
303000
303000
303000
FFFC00
070000
060000
040000
ENDCHAR

STARTCHAR afii10017
ENCODING 176
SWIDTH 753 0
DWIDTH 15 0
BBX 14 14 0 0
BITMAP
0040
00C0
00E0
0160
0160
0260
0460
0460
0830
1FF0
1030
2030
6030
F8FC
ENDCHAR

STARTCHAR afii10018
ENCODING 177
SWIDTH 767 0
DWIDTH 15 0
BBX 14 14 1 0
BITMAP
1FFC
061C
060C
0604
0C04
0C00
0FC0
1830
1818
1818
3018
3018
3030
FFC0
ENDCHAR

STARTCHAR afii10019
ENCODING 178
SWIDTH 766 0
DWIDTH 14 0
BBX 14 14 0 0
BITMAP
1FE0
0618
060C
060C
0C0C
0C18
0FE0
1830
1818
1818
3018
3018
3030
FFC0
ENDCHAR

STARTCHAR afii10020
ENCODING 179
SWIDTH 676 0
DWIDTH 13 0
BBX 13 14 1 0
BITMAP
1FF8
0618
0608
0608
0C00
0C00
0C00
1800
1800
1800
3000
3000
3000
FC00
ENDCHAR

STARTCHAR afii10021
ENCODING 180
SWIDTH 803 0
DWIDTH 15 0
BBX 16 17 0 -3
BITMAP
0FFF
030C
020C
020C
0418
0418
0418
0830
0830
0830
1060
1060
6060
FFF8
C018
8008
8008
ENDCHAR

STARTCHAR afii10022
ENCODING 181
SWIDTH 708 0
DWIDTH 13 0
BBX 14 14 0 0
BITMAP
1FFC
061C
060C
0608
0C48
0C40
0FC0
1880
1880
1800
3010
3030
3060
FFE0
ENDCHAR

STARTCHAR afii10024
ENCODING 182
SWIDTH 1175 0
DWIDTH 22 0
BBX 21 14 1 0
BITMAP
187E30
3C1878
341858
041880
043080
023100
03FE00
066300
0C6300
186180
18C180
30C180
60C0C0
E3F0E0
ENDCHAR

STARTCHAR afii10025
ENCODING 183
SWIDTH 632 0
DWIDTH 12 0
BBX 13 14 0 0
BITMAP
07E0
0C30
0818
1018
1018
0030
07E0
00C0
0060
0060
8060
80C0
6180
3E00
ENDCHAR

STARTCHAR afii10026
ENCODING 184
SWIDTH 823 0
DWIDTH 16 0
BBX 17 14 0 0
BITMAP
1F9F80
060600
060E00
061E00
0C3C00
0C6C00
0CCC00
199800
1B1800
1E1800
3C3000
383000
303000
FCFC00
ENDCHAR

STARTCHAR afii10027
ENCODING 185
SWIDTH 823 0
DWIDTH 16 0
BBX 17 18 0 0
BITMAP
018C00
018C00
00F800
000000
1F9F80
060600
060E00
061E00
0C3C00
0C6C00
0CCC00
199800
1B1800
1E1800
3C3000
383000
303000
FCFC00
ENDCHAR

STARTCHAR afii10028
ENCODING 186
SWIDTH 779 0
DWIDTH 15 0
BBX 15 14 0 0
BITMAP
1F8C
061E
0616
0620
0C20
0C40
0F80
1CC0
18C0
1860
3060
3060
3030
FC38
ENDCHAR

STARTCHAR afii10029
ENCODING 187
SWIDTH 830 0
DWIDTH 16 0
BBX 18 14 -1 0
BITMAP
03FFC0
00C300
008300
008300
010600
010600
010600
020C00
020C00
020C00
041800
C41800
E81800
707E00
ENDCHAR

STARTCHAR afii10030
ENCODING 188
SWIDTH 979 0
DWIDTH 19 0
BBX 20 14 0 0
BITMAP
1F01F0
0701C0
0702C0
0B06C0
0B0580
0B0980
0B0980
111300
11B300
11A300
21C600
21C600
718600
F99F80
ENDCHAR

STARTCHAR afii10031
ENCODING 189
SWIDTH 812 0
DWIDTH 15 0
BBX 17 14 0 0
BITMAP
1F9F80
060600
060600
060600
0C0C00
0C0C00
0FFC00
181800
181800
181800
303000
303000
303000
FCFC00
ENDCHAR

STARTCHAR afii10032
ENCODING 190
SWIDTH 787 0
DWIDTH 15 0
BBX 13 14 2 0
BITMAP
03C0
0C70
3830
3018
6018
6018
C018
C018
C030
C030
C060
60E0
7180
1E00
ENDCHAR

STARTCHAR afii10033
ENCODING 191
SWIDTH 823 0
DWIDTH 16 0
BBX 17 14 0 0
BITMAP
1FFF80
060600
060600
060600
0C0C00
0C0C00
0C0C00
181800
181800
181800
303000
303000
303000
FCFC00
ENDCHAR

STARTCHAR afii10034
ENCODING 192
SWIDTH 704 0
DWIDTH 13 0
BBX 14 14 0 0
BITMAP
1FE0
0618
060C
060C
0C0C
0C0C
0C18
1FE0
1800
1800
3000
3000
3000
FC00
ENDCHAR

STARTCHAR afii10035
ENCODING 193
SWIDTH 708 0
DWIDTH 13 0
BBX 13 14 1 0
BITMAP
03E0
0C38
3818
3008
6008
6000
C000
C000
C000
C020
C020
6040
70C0
1F00
ENDCHAR

STARTCHAR afii10036
ENCODING 194
SWIDTH 708 0
DWIDTH 14 0
BBX 13 14 2 0
BITMAP
7FF8
6318
4308
4308
0600
0600
0600
0C00
0C00
0C00
1800
1800
1800
FF00
ENDCHAR

STARTCHAR afii10037
ENCODING 195
SWIDTH 738 0
DWIDTH 14 0
BBX 16 14 0 0
BITMAP
3F3F
0C0C
0C08
0C10
0C20
0620
0640
0680
0680
6700
E200
C200
4400
3800
ENDCHAR

STARTCHAR afii10038
ENCODING 196
SWIDTH 874 0
DWIDTH 17 0
BBX 15 14 2 0
BITMAP
03F0
00C0
0FF8
38CC
6186
6186
C186
C306
C30C
C30C
6638
3FE0
0600
1F80
ENDCHAR

STARTCHAR afii10039
ENCODING 197
SWIDTH 760 0
DWIDTH 14 0
BBX 16 14 0 0
BITMAP
3F1F
0E0C
0608
0610
0320
0340
0180
0180
02C0
04C0
0860
1060
3070
F8FC
ENDCHAR

STARTCHAR afii10040
ENCODING 198
SWIDTH 823 0
DWIDTH 16 0
BBX 17 17 0 -3
BITMAP
1F9F80
060600
060600
060600
0C0C00
0C0C00
0C0C00
181800
181800
181800
303000
303000
303000
FFFC00
000C00
000400
000400
ENDCHAR

STARTCHAR afii10041
ENCODING 199
SWIDTH 779 0
DWIDTH 15 0
BBX 14 14 2 0
BITMAP
FCFC
3030
3030
6030
6060
6060
60E0
33C0
1EC0
00C0
0180
0180
0180
07E0
ENDCHAR

STARTCHAR afii10042
ENCODING 200
SWIDTH 1141 0
DWIDTH 22 0
BBX 23 14 0 0
BITMAP
1FBF7E
060C18
060C18
060C18
0C1830
0C1830
0C1830
183060
183060
183060
3060C0
3060C0
3060C0
FFFFF0
ENDCHAR

STARTCHAR afii10043
ENCODING 201
SWIDTH 1132 0
DWIDTH 22 0
BBX 23 17 0 -3
BITMAP
1FBF7E
060C18
060C18
060C18
0C1830
0C1830
0C1830
183060
183060
183060
3060C0
3060C0
3060C0
FFFFF0
000030
000010
000010
ENDCHAR

STARTCHAR afii10044
ENCODING 202
SWIDTH 881 0
DWIDTH 17 0
BBX 14 14 2 0
BITMAP
7FC0
6300
4300
8300
8600
0600
07E0
0C18
0C0C
0C0C
180C
180C
1818
7FE0
ENDCHAR

STARTCHAR afii10045
ENCODING 203
SWIDTH 1083 0
DWIDTH 21 0
BBX 22 14 0 0
BITMAP
1F80FC
060030
060030
060030
0C0060
0C0060
0FC060
1830C0
1818C0
1818C0
301980
301980
303180
FFC7E0
ENDCHAR

STARTCHAR afii10046
ENCODING 204
SWIDTH 739 0
DWIDTH 14 0
BBX 13 14 0 0
BITMAP
1F80
0600
0600
0600
0C00
0C00
0FC0
1830
1818
1818
3018
3018
3030
FFC0
ENDCHAR

STARTCHAR afii10047
ENCODING 205
SWIDTH 703 0
DWIDTH 13 0
BBX 13 14 0 0
BITMAP
07C0
3870
3030
2018
2018
0018
0018
07F8
0030
8030
8060
40E0
6180
1F00
ENDCHAR

STARTCHAR afii10048
ENCODING 206
SWIDTH 1133 0
DWIDTH 22 0
BBX 21 14 1 0
BITMAP
1F83C0
060C70
063830
063018
0C6018
0C6018
0FC018
18C018
18C030
18C030
30C060
3060E0
307180
FC1E00
ENDCHAR

STARTCHAR afii10049
ENCODING 207
SWIDTH 746 0
DWIDTH 14 0
BBX 15 14 1 0
BITMAP
03FE
0C18
1818
1818
1830
1830
0C30
0FE0
1860
3060
30C0
60C0
60C0
E7F0
ENDCHAR

STARTCHAR afii10065
ENCODING 208
SWIDTH 604 0
DWIDTH 11 0
BBX 10 10 1 0
BITMAP
0D80
3380
6180
6300
C300
C300
C300
C640
6E80
3700
ENDCHAR

STARTCHAR afii10066
ENCODING 209
SWIDTH 551 0
DWIDTH 10 0
BBX 11 14 1 0
BITMAP
0060
0FC0
1800
2000
2E00
7300
6180
6180
C180
C180
C300
C300
6600
3800
ENDCHAR

STARTCHAR afii10067
ENCODING 210
SWIDTH 488 0
DWIDTH 9 0
BBX 8 10 1 0
BITMAP
0E
33
63
63
C6
FE
C3
C3
66
3C
ENDCHAR

STARTCHAR afii10068
ENCODING 211
SWIDTH 439 0
DWIDTH 8 0
BBX 8 10 1 0
BITMAP
1E
23
03
06
0C
30
60
C0
C4
78
ENDCHAR

STARTCHAR afii10069
ENCODING 212
SWIDTH 542 0
DWIDTH 10 0
BBX 9 14 1 0
BITMAP
0E00
0300
0180
0180
0F80
3380
6180
6180
C180
C180
C300
C300
6600
3800
ENDCHAR

STARTCHAR afii10070
ENCODING 213
SWIDTH 458 0
DWIDTH 9 0
BBX 8 10 1 0
BITMAP
0E
33
63
63
CE
F8
C0
C0
62
3C
ENDCHAR

STARTCHAR afii10072
ENCODING 214
SWIDTH 975 0
DWIDTH 19 0
BBX 20 10 0 0
BITMAP
1C30E0
263330
033630
036600
03FC00
036C00
066C00
C6CC00
CCC640
78C380
ENDCHAR

STARTCHAR afii10073
ENCODING 215
SWIDTH 490 0
DWIDTH 9 0
BBX 9 10 1 0
BITMAP
1F00
3180
2180
0300
1E00
0300
C300
C300
8600
7C00
ENDCHAR

STARTCHAR afii10074
ENCODING 216
SWIDTH 629 0
DWIDTH 12 0
BBX 11 10 1 0
BITMAP
F0C0
30C0
30C0
6180
6180
6180
C300
C720
EB40
7180
ENDCHAR

STARTCHAR afii10075
ENCODING 217
SWIDTH 635 0
DWIDTH 12 0
BBX 11 13 1 0
BITMAP
1880
0F00
0000
F0C0
30C0
30C0
6180
6180
6180
C300
C720
EB40
7180
ENDCHAR

STARTCHAR afii10076
ENCODING 218
SWIDTH 594 0
DWIDTH 11 0
BBX 10 10 1 0
BITMAP
F0C0
31C0
3100
6200
7C00
6600
6600
C600
C300
C380
ENDCHAR

STARTCHAR afii10077
ENCODING 219
SWIDTH 646 0
DWIDTH 12 0
BBX 14 10 -1 0
BITMAP
0FFC
0330
0230
0460
0460
0460
08C0
C8C8
D0D0
6060
ENDCHAR

STARTCHAR afii10078
ENCODING 220
SWIDTH 854 0
DWIDTH 16 0
BBX 17 10 -1 0
BITMAP
0F0300
030700
030F00
070B00
059600
05A600
09A600
C9CC80
D18D00
618E00
ENDCHAR

STARTCHAR afii10079
ENCODING 221
SWIDTH 644 0
DWIDTH 12 0
BBX 11 10 1 0
BITMAP
F0C0
30C0
30C0
6180
7F80
6180
6180
C320
C340
C380
ENDCHAR

STARTCHAR afii10080
ENCODING 222
SWIDTH 531 0
DWIDTH 10 0
BBX 9 10 1 0
BITMAP
0E00
3300
6180
6180
C180
C180
C300
C300
6600
3800
ENDCHAR

STARTCHAR afii10081
ENCODING 223
SWIDTH 635 0
DWIDTH 12 0
BBX 11 10 1 0
BITMAP
F380
35C0
38C0
30C0
6180
6180
6180
C320
C340
C180
ENDCHAR

STARTCHAR afii10082
ENCODING 224
SWIDTH 583 0
DWIDTH 11 0
BBX 12 13 -1 -3
BITMAP
1EC0
0760
0630
0C30
0C30
0C30
1860
1860
1CC0
3300
3000
3000
FC00
ENDCHAR

STARTCHAR afii10083
ENCODING 225
SWIDTH 458 0
DWIDTH 9 0
BBX 8 10 1 0
BITMAP
0E
33
61
60
C0
C0
C0
C0
62
3C
ENDCHAR

STARTCHAR afii10084
ENCODING 226
SWIDTH 906 0
DWIDTH 17 0
BBX 15 10 1 0
BITMAP
F738
3BDC
318C
318C
6318
6318
6318
C632
C634
C618
ENDCHAR

STARTCHAR afii10085
ENCODING 227
SWIDTH 510 0
DWIDTH 10 0
BBX 11 13 -2 -3
BITMAP
18C0
2C60
4C20
0C20
0C20
0640
0640
0680
0700
0600
8400
C800
7000
ENDCHAR

STARTCHAR afii10086
ENCODING 228
SWIDTH 759 0
DWIDTH 14 0
BBX 14 17 0 -3
BITMAP
0038
004C
004C
0080
1EB8
33CC
318C
618C
630C
C318
C618
C630
CF30
75E0
C800
C800
7000
ENDCHAR

STARTCHAR afii10087
ENCODING 229
SWIDTH 573 0
DWIDTH 11 0
BBX 11 10 0 0
BITMAP
18E0
2D60
4D00
0600
0600
0C00
0C00
1640
D680
E300
ENDCHAR

STARTCHAR afii10088
ENCODING 230
SWIDTH 635 0
DWIDTH 12 0
BBX 11 14 1 -4
BITMAP
F0C0
30C0
30C0
6180
6180
6180
C300
C720
EB40
71C0
0040
00C0
0080
0100
ENDCHAR

STARTCHAR afii10089
ENCODING 231
SWIDTH 602 0
DWIDTH 11 0
BBX 9 10 2 0
BITMAP
E300
6300
C300
C600
CE00
7600
0C00
0C80
0D00
0600
ENDCHAR

STARTCHAR afii10090
ENCODING 232
SWIDTH 896 0
DWIDTH 17 0
BBX 15 10 1 0
BITMAP
F18C
318C
318C
6318
6318
6318
C630
C632
EF74
73D8
ENDCHAR

STARTCHAR afii10091
ENCODING 233
SWIDTH 895 0
DWIDTH 17 0
BBX 15 13 1 -3
BITMAP
718C
318C
318C
6318
6318
6318
C630
C632
EF74
73D8
0008
0018
0020
ENDCHAR

STARTCHAR afii10092
ENCODING 234
SWIDTH 573 0
DWIDTH 11 0
BBX 9 10 1 0
BITMAP
6400
F800
1800
1F00
3180
3180
6180
6300
6300
3C00
ENDCHAR

STARTCHAR afii10093
ENCODING 235
SWIDTH 798 0
DWIDTH 15 0
BBX 14 10 1 0
BITMAP
F078
3018
3018
7E30
6330
6330
C360
C664
C668
7830
ENDCHAR

STARTCHAR afii10094
ENCODING 236
SWIDTH 521 0
DWIDTH 10 0
BBX 8 10 1 0
BITMAP
F0
30
30
3E
63
63
C3
C6
C6
78
ENDCHAR

STARTCHAR afii10095
ENCODING 237
SWIDTH 448 0
DWIDTH 9 0
BBX 8 10 1 0
BITMAP
1C
26
03
03
1F
03
06
C6
CC
70
ENDCHAR

STARTCHAR afii10096
ENCODING 238
SWIDTH 805 0
DWIDTH 15 0
BBX 14 10 1 0
BITMAP
F070
3198
330C
630C
7E0C
660C
6618
C618
C330
C1C0
ENDCHAR

STARTCHAR afii10097
ENCODING 239
SWIDTH 592 0
DWIDTH 11 0
BBX 11 10 0 0
BITMAP
0FC0
18C0
30C0
3180
1980
1F80
3180
3320
6340
E180
ENDCHAR

STARTCHAR afii61352
ENCODING 240
SWIDTH 1000 0
DWIDTH 19 0
BBX 20 14 -1 0
BITMAP
0F0180
0303C0
0302C0
038400
0584E0
058590
058910
04CB30
08CA20
08D260
08D1C0
D07000
F06000
6067C0
ENDCHAR

STARTCHAR afii10071
ENCODING 241
SWIDTH 462 0
DWIDTH 9 0
BBX 8 13 1 0
BITMAP
33
33
00
0E
33
63
63
CE
F8
C0
C0
62
3C
ENDCHAR

STARTCHAR afii10099
ENCODING 242
SWIDTH 563 0
DWIDTH 12 0
BBX 10 18 1 -4
BITMAP
7800
1800
FF00
3000
3380
35C0
38C0
70C0
6180
6180
6180
C300
C300
C300
0600
0600
0C00
1800
ENDCHAR

STARTCHAR afii10100
ENCODING 243
SWIDTH 510 0
DWIDTH 10 0
BBX 11 14 -1 0
BITMAP
00E0
0180
0300
0000
3FE0
0C60
0C20
1800
1800
1800
1800
3000
3000
FC00
ENDCHAR

STARTCHAR afii10101
ENCODING 244
SWIDTH 469 0
DWIDTH 9 0
BBX 8 10 1 0
BITMAP
0E
33
61
60
F8
C0
C0
C0
62
3C
ENDCHAR

STARTCHAR afii10102
ENCODING 245
SWIDTH 448 0
DWIDTH 9 0
BBX 8 10 1 0
BITMAP
1E
33
61
60
38
1C
06
86
CC
78
ENDCHAR

STARTCHAR afii10103
ENCODING 246
SWIDTH 344 0
DWIDTH 7 0
BBX 5 14 1 0
BITMAP
18
18
00
00
F0
30
30
60
60
60
C0
C8
D0
60
ENDCHAR

STARTCHAR afii10104
ENCODING 247
SWIDTH 344 0
DWIDTH 7 0
BBX 6 14 1 0
BITMAP
CC
CC
00
00
F0
30
30
60
60
60
C0
C8
D0
60
ENDCHAR

STARTCHAR afii10105
ENCODING 248
SWIDTH 344 0
DWIDTH 7 0
BBX 9 17 -2 -3
BITMAP
0180
0180
0000
0000
0F00
0300
0300
0600
0600
0600
0C00
0C00
0C00
1800
9800
D000
6000
ENDCHAR

STARTCHAR afii10106
ENCODING 249
SWIDTH 850 0
DWIDTH 16 0
BBX 16 10 0 0
BITMAP
0FF8
0330
0230
043E
0463
0463
08C3
C8C6
D0C6
6078
ENDCHAR

STARTCHAR afii10107
ENCODING 250
SWIDTH 845 0
DWIDTH 16 0
BBX 13 10 2 0
BITMAP
F180
3180
3180
63F0
7F18
6318
6618
C630
C630
C3C0
ENDCHAR

STARTCHAR afii10108
ENCODING 251
SWIDTH 635 0
DWIDTH 12 0
BBX 11 14 1 0
BITMAP
7800
1800
7F00
3000
3380
35C0
38C0
70C0
6180
6180
6180
C320
C340
C180
ENDCHAR

STARTCHAR afii10109
ENCODING 252
SWIDTH 594 0
DWIDTH 11 0
BBX 10 14 1 0
BITMAP
01C0
0300
0600
0000
F0C0
31C0
3100
6200
7C00
6600
6600
C600
C300
C380
ENDCHAR

STARTCHAR section
ENCODING 253
SWIDTH 489 0
DWIDTH 9 0
BBX 9 18 0 -3
BITMAP
0F00
1980
3080
3000
1800
1C00
3600
6600
6300
6300
3300
3600
1C00
0C00
0600
8600
CC00
7800
ENDCHAR

STARTCHAR afii10110
ENCODING 254
SWIDTH 510 0
DWIDTH 10 0
BBX 11 16 -1 -3
BITMAP
0640
0380
0000
18C0
2C60
2C20
0C20
0C40
0640
0680
0680
0700
0600
8400
C800
7000
ENDCHAR

STARTCHAR afii10193
ENCODING 255
SWIDTH 635 0
DWIDTH 12 0
BBX 11 13 1 -3
BITMAP
F0C0
30C0
30C0
6180
6180
6180
C300
C720
EB40
7180
2000
6000
4000
ENDCHAR
ENDFONT
